# xmcd CD database file
#
# Track frame offsets:
#	182
#	18215
#	31317
#	44185
#	66610
#	82655
#	98690
#	124395
#	136690
#
# Disc length: 2129 seconds
#
# Revision: 2
# Processed by: cddbd v1.5.1PL0 Copyright (c) Steve Scherf et al.
# Submitted via: CDex 1.51
#
DISCID=73084f09
DTITLE=Bo Diddley - Who Do You Love [CD 2 of 3)
DYEAR=1990
DGENRE=Blues
TTITLE0=Don't Want No Lyin' Woman
TTITLE1=Bo Diddley
TTITLE2=Going Down
TTITLE3=Make A Hit Record
TTITLE4=Bo-Jam
TTITLE5=Husband-In-law
TTITLE6=Do The Robot
TTITLE7=Sneakers On A Rooster
TTITLE8=Get Out Of My Life
EXTD=YEAR: 1990
EXTT0=
EXTT1=
EXTT2=
EXTT3=
EXTT4=
EXTT5=
EXTT6=
EXTT7=
EXTT8=
PLAYORDER=
